<?xml version="1.0" encoding="UTF-8"?><svg id="Layer_1" xmlns="http://www.w3.org/2000/svg" viewBox="0 0 356.14 164.08"><defs><style>.cls-1{fill:#fff;}.cls-2{fill:#e01f26;stroke:#000;stroke-miterlimit:10;stroke-width:.85px;}</style></defs><path class="cls-1" d="m21.34,25.84v110.73H0V25.84h21.34Zm68.79-2.75h-.56c-14.85.13-28.98,5.96-39.79,16.41-10.81,10.45-17.11,24.37-17.72,39.21-.67,15.98,5.06,31.14,16.12,42.69,11.08,11.56,25.98,17.92,41.94,17.92s33.24-6.65,44.07-17.38v-49.19h-46.15v20.5h25.38v18.03l-.27.18c-6.39,4.21-14.71,6.93-23.03,6.93-10.29,0-19.87-4.12-26.97-11.61-7.1-7.48-10.7-17.26-10.16-27.57.97-18.65,16.37-34.08,35.04-35.14,10.38-.6,20.28,3.66,28.17,11.22.28.27.6.61.96,1.02l14.8-14.8c-.33-.36-.66-.7-.96-1.02-10.53-10.99-24.9-17.42-40.87-17.42h0Z"/><rect class="cls-1" x="181.54" width="3.25" height="164.08"/><path class="cls-1" d="m261.35,26.46h-15.18c0,19.05-10.03,29.36-27.64,29.36v12.03h13.89v42.82c0,15.33,12.17,19.62,25.64,19.62,9.74,0,14.03-.57,21.49-2.43v-15.9c-4.72,1.15-7.88,1.43-11.18,1.43-5.44,0-7.02-1.29-7.02-6.59v-38.96h18.47l2.6-12.74h-21.08v-28.64h0Z"/><path class="cls-1" d="m316.49,26.46h-15.18c0,19.05-10.03,29.36-27.64,29.36v12.03h13.89v42.82c0,15.33,12.17,19.62,25.64,19.62,9.74,0,14.03-.57,21.49-2.43v-15.9c-4.72,1.15-7.88,1.43-11.18,1.43-5.44,0-7.02-1.29-7.02-6.59v-38.96h18.47v-12.74h-18.47v-28.64h0Z"/><path class="cls-2" d="m354.62,138.93c-3.71,10.12-15.74,15-26.86,10.92-11.12-4.08-17.13-15.59-13.42-25.7,3.71-10.12,15.74-15,26.86-10.92,11.12,4.08,17.13,15.59,13.42,25.7"/><path d="m319.09,126.65c-3.36,4.8-.03,12.11,2.88,14.87,2.55,2.42,8.22,5.5,13.36,4.49-6.53-3.11-15.56-8.54-16.05-19.29"/><path class="cls-1" d="m346.81,134.52c-.76,1.28-2.7,1.53-4.33.56-1.64-.97-2.34-2.79-1.58-4.06.76-1.28,2.7-1.53,4.33-.56,1.63.97,2.34,2.79,1.58,4.07"/><path d="m351.92,89.42c-.09-.17-.17-.32-.22-.44-.07-.14-.2-.22-.35-.22-.16,0-.27.11-.41.22-.14.12-.31.27-.48.28-.1,0-.2-.04-.31-.13-.06-.14-.19-.2-.32-.19-.17,0-.33.02-.94,1.34-1.14,1.47-2.39,2.87-3.47,4.34-.03.03-.05.07-.08.1-1.09,1.48-2.12,3-3.08,4.58-.97,1.59-1.88,3.22-2.7,4.89-.82,1.66-1.55,3.36-2.18,5.1-.33.91-.57,1.85-.77,2.8-.19.93-.3,1.87-.49,2.8-.08.42-.15.84-.21,1.26-.05.35-.09.7-.12,1.04-.08.71-.15,1.45-.07,2.16.07.6.08,1.06.09,1.43-1.4-.81-1.66-1.68-1.88-2.54-.18-.7-.41-1.72-1.12-1.54s-1.13.89-.95,1.59c.44,1.76,2,3.21,4.27,3.98.31.11.63.2.97.27,1.96.44,4.3.35,5.78-.82.57-.45.66-1.27.22-1.85-.45-.57-1.83,1.13-3.52,1.45-.24.04-.51.09-.8.12-.27-1.81-.18-3.66.08-5.47.27-1.92.77-3.79,1.4-5.62.6-1.74,1.28-3.44,2.07-5.11.28-.6.59-1.18.88-1.77,1.31-2.5,2.86-4.97,4.65-7.17.83-1.01,2.37-2.48,3.41-3.29l.11-.08c.22-.17.53-.41,1.24-1l.08-.06.02-.1c.14-.56-.27-1.41-.79-2.37h.02Z"/></svg>